<svg width="21" height="24" viewBox="0 0 21 24" fill="none" xmlns="http://www.w3.org/2000/svg">
<g clip-path="url(#clip0_525_3954)">
<path fill-rule="evenodd" clip-rule="evenodd" d="M13.8374 3.89624C14.6201 2.88584 15.2134 1.45774 14.9988 0C13.7195 0.088904 12.2242 0.907396 11.3517 1.97424C10.5564 2.9409 9.90273 4.37889 10.158 5.77454C11.5565 5.81828 12.9999 4.98002 13.8374 3.89624ZM20.75 17.6086C20.1903 18.8561 19.921 19.4135 19.2 20.5185C18.1942 22.0609 16.7761 23.9815 15.0171 23.9956C13.4558 24.0125 13.0532 22.9725 10.9337 22.9852C8.81421 22.9965 8.37235 24.0153 6.80831 23.9998C5.0507 23.9843 3.70688 22.2514 2.70113 20.709C-0.112739 16.3992 -0.408715 11.3402 1.32646 8.64908C2.56086 6.73835 4.50784 5.6207 6.33699 5.6207C8.19841 5.6207 9.36969 6.64804 10.9113 6.64804C12.4066 6.64804 13.317 5.61789 15.4701 5.61789C17.1001 5.61789 18.8269 6.51115 20.0557 8.05215C16.027 10.2733 16.6793 16.0606 20.75 17.6086Z" fill="#20130B"/>
</g>
<defs>
<clipPath id="clip0_525_3954">
<rect width="20.5" height="24" fill="white" transform="translate(0.25)"/>
</clipPath>
</defs>
</svg>
