<svg width="50" height="74" viewBox="0 0 50 74" fill="none" xmlns="http://www.w3.org/2000/svg">
<path d="M10 35.7241V15.3103C10 11.2498 11.5804 7.35554 14.3934 4.4843C17.2064 1.61305 21.0218 0 25 0C28.9782 0 32.7936 1.61305 35.6066 4.4843C38.4197 7.35554 40 11.2498 40 15.3103V35.7241C40 39.7847 38.4197 43.6789 35.6066 46.5502C32.7936 49.4214 28.9782 51.0345 25 51.0345C21.0218 51.0345 17.2064 49.4214 14.3934 46.5502C11.5804 43.6789 10 39.7847 10 35.7241ZM50 35.7241C50 35.0474 49.7366 34.3983 49.2678 33.9198C48.7989 33.4413 48.163 33.1724 47.5 33.1724C46.837 33.1724 46.2011 33.4413 45.7322 33.9198C45.2634 34.3983 45 35.0474 45 35.7241C45 41.1382 42.8929 46.3305 39.1421 50.1589C35.3914 53.9872 30.3043 56.1379 25 56.1379C19.6957 56.1379 14.6086 53.9872 10.8579 50.1589C7.10714 46.3305 5 41.1382 5 35.7241C5 35.0474 4.73661 34.3983 4.26777 33.9198C3.79893 33.4413 3.16304 33.1724 2.5 33.1724C1.83696 33.1724 1.20107 33.4413 0.732234 33.9198C0.263393 34.3983 0 35.0474 0 35.7241C0.00761286 42.0478 2.31226 48.1439 6.46826 52.8336C10.6243 57.5234 16.3364 60.4736 22.5 61.1138V71.4483C22.5 72.125 22.7634 72.7741 23.2322 73.2526C23.7011 73.7312 24.337 74 25 74C25.663 74 26.2989 73.7312 26.7678 73.2526C27.2366 72.7741 27.5 72.125 27.5 71.4483V61.1138C33.6636 60.4736 39.3757 57.5234 43.5317 52.8336C47.6877 48.1439 49.9924 42.0478 50 35.7241Z" fill="white"/>
</svg>
