<svg width="20" height="20" viewBox="0 0 20 20" fill="none" xmlns="http://www.w3.org/2000/svg">
<path fill-rule="evenodd" clip-rule="evenodd" d="M15.3742 1.657C15.5676 1.45513 15.7994 1.29391 16.0559 1.18278C16.3124 1.07166 16.5886 1.01288 16.8681 1.00989C17.1477 1.00689 17.425 1.05974 17.6839 1.16534C17.9427 1.27094 18.1779 1.42716 18.3755 1.62484C18.5732 1.82252 18.7294 2.05768 18.835 2.31654C18.9406 2.57539 18.9935 2.85272 18.9905 3.13226C18.9875 3.41181 18.9287 3.68795 18.8176 3.94448C18.7065 4.20101 18.5453 4.43277 18.3434 4.62617L14.8001 8.1695L14.7751 8.1945C14.5834 8.38617 14.4492 8.52117 14.2984 8.63783C14.122 8.77564 13.9312 8.89384 13.7292 8.99033C13.5576 9.072 13.3776 9.132 13.1192 9.21783L13.0859 9.2295L11.5542 9.7395C11.3741 9.79953 11.1808 9.80822 10.996 9.76459C10.8112 9.72096 10.6422 9.62673 10.5079 9.49247C10.3737 9.3582 10.2794 9.1892 10.2358 9.0044C10.1922 8.8196 10.2009 8.62631 10.2609 8.44617L10.7709 6.9145L10.7826 6.88117C10.8684 6.62283 10.9284 6.44283 11.0101 6.27117C11.1073 6.06894 11.2248 5.87894 11.3626 5.70117C11.4792 5.55117 11.6134 5.41783 11.8059 5.22533L11.8309 5.20033L15.3742 1.657ZM17.4592 2.54033C17.2998 2.38105 17.0837 2.29158 16.8584 2.29158C16.6331 2.29158 16.4169 2.38105 16.2576 2.54033L16.1484 2.65033L16.1617 2.692C16.2301 2.88867 16.3601 3.14867 16.6059 3.3945C16.8134 3.60503 17.0687 3.76228 17.3501 3.85283L17.4592 3.74283C17.6185 3.58344 17.708 3.36733 17.708 3.142C17.708 2.91667 17.6185 2.69972 17.4592 2.54033ZM16.4051 4.79783C15.9012 4.51597 15.4852 4.10004 15.2034 3.59617L12.7151 6.08367C12.4884 6.31117 12.4117 6.38867 12.3484 6.47033C12.2663 6.57515 12.1959 6.6886 12.1384 6.80867C12.0942 6.90283 12.0584 7.00533 11.9567 7.31033L11.7692 7.87283L12.1276 8.23117L12.6901 8.04283C12.9951 7.942 13.0976 7.90617 13.1917 7.862C13.3118 7.80449 13.4252 7.73408 13.5301 7.652C13.6117 7.58867 13.6892 7.512 13.9167 7.28533L16.4051 4.79783Z" fill="black"/>
<path fill-rule="evenodd" clip-rule="evenodd" d="M10.0001 1.04199H9.95258C8.02841 1.04199 6.52091 1.04199 5.34425 1.20033C4.14091 1.36199 3.19091 1.70033 2.44508 2.44533C1.69925 3.19116 1.36175 4.14116 1.20008 5.34533C1.04175 6.52116 1.04175 8.02866 1.04175 9.95283V10.0478C1.04175 11.972 1.04175 13.4795 1.20008 14.6562C1.36175 15.8595 1.70008 16.8095 2.44508 17.5553C3.19091 18.3012 4.14091 18.6387 5.34508 18.8003C6.52091 18.9587 8.02841 18.9587 9.95258 18.9587H10.0476C11.9717 18.9587 13.4792 18.9587 14.6559 18.8003C15.8592 18.6387 16.8092 18.3003 17.5551 17.5553C18.3009 16.8095 18.6384 15.8595 18.8001 14.6553C18.9584 13.4795 18.9584 11.972 18.9584 10.0478V10.0003C18.9584 9.83457 18.8926 9.67559 18.7754 9.55838C18.6581 9.44117 18.4992 9.37533 18.3334 9.37533C18.1677 9.37533 18.0087 9.44117 17.8915 9.55838C17.7743 9.67559 17.7084 9.83457 17.7084 10.0003C17.7084 11.982 17.7067 13.4053 17.5617 14.4887L17.5434 14.6153L15.2317 12.5345C14.7058 12.0613 14.035 11.7806 13.3288 11.7382C12.6226 11.6958 11.923 11.8943 11.3442 12.3012L11.0959 12.4762C10.8952 12.6169 10.6513 12.6823 10.4072 12.661C10.163 12.6397 9.93415 12.5329 9.76091 12.3595L6.18591 8.78449C5.72989 8.32864 5.11765 8.06315 4.4732 8.0418C3.82876 8.02044 3.20028 8.24483 2.71508 8.66949L2.29258 9.03866C2.29675 7.54533 2.31758 6.41116 2.43841 5.51199C2.58175 4.44616 2.85508 3.80366 3.32925 3.32866C3.80425 2.85449 4.44591 2.58199 5.51175 2.43866C6.59508 2.29366 8.01841 2.29199 10.0001 2.29199C10.1658 2.29199 10.3248 2.22614 10.442 2.10893C10.5592 1.99172 10.6251 1.83275 10.6251 1.66699C10.6251 1.50123 10.5592 1.34226 10.442 1.22505C10.3248 1.10784 10.1658 1.04199 10.0001 1.04199ZM2.43841 14.4887C2.58175 15.5545 2.85508 16.197 3.32925 16.672C3.80425 17.1462 4.44591 17.4187 5.51175 17.562C6.59508 17.707 8.01841 17.7087 10.0001 17.7087C11.9817 17.7087 13.4051 17.707 14.4884 17.562C15.5542 17.4187 16.1967 17.1453 16.6717 16.6712C16.8808 16.4625 17.0512 16.2184 17.1751 15.9503C17.1424 15.9295 17.1112 15.9064 17.0817 15.8812L14.3959 13.4645C14.0805 13.1801 13.6779 13.0113 13.254 12.9855C12.8301 12.9598 12.4101 13.0787 12.0626 13.3228L11.8151 13.4978C11.3737 13.8081 10.8371 13.9527 10.2996 13.9062C9.76211 13.8597 9.25826 13.6251 8.87675 13.2437L5.30175 9.66866C5.06997 9.43693 4.75876 9.30197 4.43118 9.29114C4.10361 9.28031 3.78416 9.39441 3.53758 9.61032L2.29175 10.7003C2.29425 12.3237 2.31091 13.5378 2.43841 14.4887Z" fill="black"/>
</svg>
