<svg width="25" height="24" viewBox="0 0 25 24" fill="none" xmlns="http://www.w3.org/2000/svg">
<path fill-rule="evenodd" clip-rule="evenodd" d="M5.67217 12.0001C5.67217 11.2206 5.80162 10.4734 6.03268 9.77245L1.9884 6.68408C1.20019 8.28445 0.756104 10.0877 0.756104 12.0001C0.756104 13.9108 1.19964 15.713 1.98676 17.3123L6.02886 14.2179C5.79998 13.5203 5.67217 12.7757 5.67217 12.0001Z" fill="#FBBC05"/>
<path fill-rule="evenodd" clip-rule="evenodd" d="M12.773 4.90909C14.4663 4.90909 15.9958 5.50909 17.1975 6.49091L20.6934 3C18.5631 1.14545 15.8319 0 12.773 0C8.02412 0 3.94269 2.71582 1.98828 6.684L6.03256 9.77236C6.96443 6.94364 9.62074 4.90909 12.773 4.90909Z" fill="#EB4335"/>
<path fill-rule="evenodd" clip-rule="evenodd" d="M12.773 19.0908C9.62074 19.0908 6.96443 17.0563 6.03256 14.2275L1.98828 17.3154C3.94269 21.2841 8.02412 23.9999 12.773 23.9999C15.7041 23.9999 18.5024 22.9592 20.6027 21.0092L16.7638 18.0414C15.6806 18.7237 14.3167 19.0908 12.773 19.0908Z" fill="#34A853"/>
<path fill-rule="evenodd" clip-rule="evenodd" d="M24.244 11.9999C24.244 11.2908 24.1348 10.5272 23.9709 9.81812H12.7732V14.4545H19.2187C18.8964 16.0352 18.0192 17.2505 16.7639 18.0414L20.6028 21.0092C22.8091 18.9616 24.244 15.9114 24.244 11.9999Z" fill="#4285F4"/>
</svg>
