<svg width="90" height="90" viewBox="0 0 90 90" fill="none" xmlns="http://www.w3.org/2000/svg">
<g clip-path="url(#clip0_746_351)">
<mask id="mask0_746_351" style="mask-type:luminance" maskUnits="userSpaceOnUse" x="0" y="0" width="90" height="90">
<path d="M-2.86102e-06 0.000267029H89.9997V90H-2.86102e-06V0.000267029Z" fill="white"/>
</mask>
<g mask="url(#mask0_746_351)">
<path d="M87.363 90H2.63671C1.18054 90 -2.86102e-06 88.8195 -2.86102e-06 87.3633V37.7931C-2.86102e-06 37.0088 0.349096 36.2651 0.952903 35.7641L43.3161 0.607933C43.7893 0.215225 44.3849 0.000274658 44.9999 0.000274658C45.6148 0.000274658 46.2104 0.215225 46.6837 0.607933L89.0468 35.7641C89.345 36.0115 89.585 36.3216 89.7497 36.6723C89.9144 37.023 89.9998 37.4057 89.9997 37.7931V87.3633C89.9997 88.8195 88.8192 90 87.363 90Z" fill="#FFD7D9"/>
<path d="M89.047 35.7641L46.6838 0.607941C46.2108 0.214836 45.6151 -0.000175476 45 0.000267029V90H87.3632C88.8194 90 89.9999 88.8195 89.9999 87.3633V37.7931C89.9999 37.0088 89.6508 36.2651 89.047 35.7641Z" fill="#FFD7D9"/>
<path d="M74.8826 66.7969H15.1171C13.661 66.7969 12.4804 65.6163 12.4804 64.1602V13.1838C12.4804 11.7276 13.661 10.547 15.1171 10.547H74.8826C76.3388 10.547 77.5193 11.7276 77.5193 13.1838V64.1602C77.5193 65.6163 76.3388 66.7969 74.8826 66.7969Z" fill="#ED1E27"/>
<path d="M74.8826 10.547H44.9999V66.7969H74.8826C76.3388 66.7969 77.5193 65.6163 77.5193 64.1602V13.1838C77.5193 11.7276 76.3388 10.547 74.8826 10.547Z" fill="#ED1E27"/>
<path d="M44.2465 42.6484C42.1615 42.6484 39.9112 40.3954 39.9112 36.7554C39.9112 33.2654 42.1963 31.18 44.4054 31.18C46.7065 31.18 48.3318 33.3317 48.419 36.4455L48.416 37.0468C48.2926 40.1652 46.4697 42.6484 44.2465 42.6484ZM61.1047 32.1469C61.0998 32.1286 61.0946 32.1104 61.0891 32.0923C59.7865 27.7767 56.8726 24.2431 52.8838 22.1424C48.8957 20.042 44.3319 19.6391 40.0332 21.0072C35.9598 22.3039 32.5711 25.0994 30.4913 28.8783C28.4106 32.6585 27.8635 37.0168 28.9506 41.1506C29.8922 44.7307 31.9251 47.8194 34.8302 50.0824C37.6269 52.2614 41.1105 53.515 44.6393 53.6128L44.6889 53.6133C45.6371 53.6133 46.4186 52.858 46.4451 51.9042C46.4718 50.9337 45.707 50.1253 44.7365 50.0984C38.9256 49.9377 33.8323 45.8905 32.3505 40.2564C30.5662 33.4707 34.4091 26.487 41.0996 24.3572C44.4938 23.2765 48.0971 23.5949 51.2454 25.253C54.3862 26.9071 56.683 29.6864 57.7153 33.0809C58.3689 35.5525 58.1542 37.8487 56.9992 40.753C56.6822 41.5498 55.7 43.4031 53.4277 43.4031C52.9998 43.4031 52.6694 43.1353 52.5104 42.9756C52.1315 42.5948 51.907 42.0337 51.9098 41.4746L51.9316 37.0718C51.9349 36.9514 51.9388 36.8311 51.9388 36.7095C51.9388 36.6332 51.9358 36.5583 51.9344 36.4827L51.9747 28.368C51.9794 27.3973 51.1963 26.6063 50.2256 26.6016H50.2167C49.2501 26.6016 48.4638 27.3829 48.4591 28.3508L48.4561 28.9565C47.3075 28.1295 45.9299 27.6644 44.4054 27.6644C40.4682 27.6644 36.3956 31.0648 36.3956 36.7554C36.3956 41.9434 39.9175 46.164 44.2465 46.164C46.0811 46.164 47.745 45.4108 49.0535 44.1396C49.3081 44.6236 49.6333 45.067 50.0184 45.4553C50.9574 46.3991 52.1682 46.9187 53.4277 46.9187C57.0428 46.9187 59.3304 44.4048 60.2659 42.0522C61.7071 38.4283 61.9659 35.3734 61.1047 32.1469Z" fill="white"/>
<path d="M46.4451 51.9037C46.4694 51.0232 45.8412 50.2781 44.9999 50.1273V53.584C45.8023 53.4398 46.4216 52.7506 46.4451 51.9037Z" fill="white"/>
<path d="M61.0891 32.0924C59.7865 27.777 56.8726 24.2432 52.8836 22.1425C50.4104 20.8398 47.7155 20.1908 44.9999 20.2115V23.7291C47.1512 23.709 49.2863 24.2214 51.2454 25.2531C54.386 26.9072 56.683 29.6865 57.7153 33.081C58.3687 35.5526 58.1542 37.849 56.999 40.7533C56.6823 41.5501 55.7 43.4033 53.4277 43.4033C52.9996 43.4033 52.6694 43.1354 52.5103 42.9758C52.1315 42.5949 51.907 42.0338 51.9096 41.4747L51.9314 37.0721C51.9349 36.9517 51.9386 36.8312 51.9386 36.7098C51.9386 36.6333 51.9358 36.5586 51.9344 36.4828L51.9745 28.3681C51.9794 27.3974 51.1963 26.6066 50.2255 26.6017H50.2165C49.2499 26.6017 48.4638 27.383 48.4589 28.3509L48.4561 28.9568C47.4587 28.2386 46.2887 27.7938 44.9999 27.6889V31.2307C46.9818 31.5694 48.3395 33.6076 48.419 36.4456L48.4158 37.0471C48.3067 39.8044 46.8686 42.0641 44.9999 42.5503V46.1198C46.5358 45.9435 47.9266 45.2344 49.0534 44.1399C49.308 44.6238 49.6332 45.0672 50.0184 45.4554C50.9573 46.3992 52.1682 46.9189 53.4277 46.9189C57.0426 46.9189 59.3302 44.4049 60.2657 42.0525C61.7071 38.4284 61.9657 35.3735 61.1047 32.147C61.0998 32.1288 61.0945 32.1107 61.0891 32.0924Z" fill="white"/>
<path d="M87.363 90H2.63671C1.18054 90 -2.86102e-06 88.8195 -2.86102e-06 87.3633V37.7931C0.00010787 37.3229 0.125939 36.8613 0.364449 36.4561C0.60296 36.0509 0.945473 35.7168 1.35651 35.4885C1.76756 35.2601 2.23217 35.1459 2.70223 35.1575C3.17229 35.1691 3.63069 35.3062 4.02995 35.5546L44.9999 61.0545L85.9698 35.5546C86.369 35.3061 86.8274 35.1689 87.2975 35.1572C87.7676 35.1455 88.2323 35.2598 88.6434 35.4881C89.0545 35.7165 89.397 36.0506 89.6355 36.4559C89.874 36.8612 89.9997 37.3229 89.9997 37.7931V87.3633C89.9997 88.8195 88.8192 90 87.363 90Z" fill="#FFD7D9"/>
<path d="M88.6434 35.4881C88.2323 35.2598 87.7677 35.1455 87.2975 35.1572C86.8274 35.1689 86.369 35.3061 85.9698 35.5546L44.9999 61.0545V90H87.363C88.8192 90 89.9997 88.8195 89.9997 87.3633V37.7931C89.9997 37.3229 89.8739 36.8612 89.6355 36.4559C89.397 36.0506 89.0545 35.7165 88.6434 35.4881Z" fill="#FFD7D9"/>
</g>
</g>
<defs>
<clipPath id="clip0_746_351">
<rect width="90" height="90" fill="white"/>
</clipPath>
</defs>
</svg>
