<svg width="20" height="21" viewBox="0 0 20 21" fill="none" xmlns="http://www.w3.org/2000/svg">
    <path
        d="M7.5 16.5C7.36739 16.5 7.24021 16.5527 7.14645 16.6464C7.05268 16.7402 7 16.8674 7 17C7 17.1326 7.05268 17.2598 7.14645 17.3536C7.24021 17.4473 7.36739 17.5 7.5 17.5H12.5C12.6326 17.5 12.7598 17.4473 12.8536 17.3536C12.9473 17.2598 13 17.1326 13 17C13 16.8674 12.9473 16.7402 12.8536 16.6464C12.7598 16.5527 12.6326 16.5 12.5 16.5H7.5Z"
        fill="white" />
    <path fill-rule="evenodd" clip-rule="evenodd"
        d="M12.169 1.57488C11.5513 1.0871 10.7871 0.821777 10 0.821777C9.21289 0.821777 8.44875 1.0871 7.831 1.57488L1.331 6.70688C0.916084 7.03451 0.580778 7.45187 0.350255 7.92764C0.119733 8.4034 -1.56699e-05 8.92521 1.53798e-09 9.45388V17.4999C1.53798e-09 18.4281 0.368749 19.3184 1.02513 19.9748C1.6815 20.6311 2.57174 20.9999 3.5 20.9999H16.5C17.4283 20.9999 18.3185 20.6311 18.9749 19.9748C19.6313 19.3184 20 18.4281 20 17.4999V9.45388C20 8.92521 19.8803 8.4034 19.6497 7.92764C19.4192 7.45187 19.0839 7.03451 18.669 6.70688L12.169 1.57488ZM8.451 2.35988C8.8922 2.0116 9.4379 1.82218 10 1.82218C10.5621 1.82218 11.1078 2.0116 11.549 2.35988L18.049 7.49188C18.3454 7.72586 18.5849 8.02394 18.7497 8.36375C18.9144 8.70355 19 9.07626 19 9.45388V17.4999C19 18.1629 18.7366 18.7988 18.2678 19.2676C17.7989 19.7365 17.163 19.9999 16.5 19.9999H3.5C2.83696 19.9999 2.20107 19.7365 1.73223 19.2676C1.26339 18.7988 1 18.1629 1 17.4999V9.45388C0.999925 9.07634 1.08536 8.70369 1.24989 8.36388C1.41442 8.02408 1.65378 7.72596 1.95 7.49188L8.451 2.35988Z"
        fill="white" />
</svg>
