<svg width="30" height="35" viewBox="0 0 30 35" fill="none" xmlns="http://www.w3.org/2000/svg">
<path d="M15 3.75016C12.3766 3.75016 10.25 5.87681 10.25 8.50016V16.4168C10.25 19.0402 12.3766 21.1668 15 21.1668C17.6234 21.1668 19.75 19.0402 19.75 16.4168V8.50016C19.75 5.87681 17.6234 3.75016 15 3.75016ZM16.5833 30.5799V33.0418C16.5833 33.9163 15.8745 34.6252 15 34.6252C14.1255 34.6252 13.4167 33.9163 13.4167 33.0418V30.5799C6.29175 29.7922 0.75 23.7517 0.75 16.4168C0.75 15.5424 1.45888 14.8335 2.33333 14.8335C3.20778 14.8335 3.91667 15.5424 3.91667 16.4168C3.91667 22.538 8.87884 27.5002 15 27.5002C21.1212 27.5002 26.0833 22.538 26.0833 16.4168C26.0833 15.5424 26.7922 14.8335 27.6667 14.8335C28.5411 14.8335 29.25 15.5424 29.25 16.4168C29.25 23.7517 23.7083 29.7922 16.5833 30.5799ZM15 0.583496C19.3723 0.583496 22.9167 4.12791 22.9167 8.50016V16.4168C22.9167 20.7891 19.3723 24.3335 15 24.3335C10.6277 24.3335 7.08333 20.7891 7.08333 16.4168V8.50016C7.08333 4.12791 10.6277 0.583496 15 0.583496Z" fill="white"/>
</svg>
