<svg width="22" height="21" viewBox="0 0 22 21" fill="none" xmlns="http://www.w3.org/2000/svg">
    <path
        d="M4.27362 7.59045H13.3917C13.4905 7.59045 13.5852 7.55122 13.6551 7.48139C13.7249 7.41155 13.7641 7.31684 13.7641 7.21808C13.7641 7.11932 13.7249 7.0246 13.6551 6.95477C13.5852 6.88494 13.4905 6.8457 13.3917 6.8457H4.27362C4.17486 6.8457 4.08015 6.88494 4.01032 6.95477C3.94048 7.0246 3.90125 7.11932 3.90125 7.21808C3.90125 7.31684 3.94048 7.41155 4.01032 7.48139C4.08015 7.55122 4.17486 7.59045 4.27362 7.59045ZM4.27362 10.4273H9.88625C9.98501 10.4273 10.0797 10.3881 10.1496 10.3183C10.2194 10.2484 10.2586 10.1537 10.2586 10.055C10.2586 9.95619 10.2194 9.86148 10.1496 9.79164C10.0797 9.72181 9.98501 9.68258 9.88625 9.68258H4.27362C4.17486 9.68258 4.08015 9.72181 4.01032 9.79164C3.94048 9.86148 3.90125 9.95619 3.90125 10.055C3.90125 10.1537 3.94048 10.2484 4.01032 10.3183C4.08015 10.3881 4.17486 10.4273 4.27362 10.4273ZM10.0081 12.5195H4.27362C4.22472 12.5195 4.1763 12.5291 4.13112 12.5478C4.08594 12.5665 4.04489 12.5939 4.01032 12.6285C3.97574 12.6631 3.94831 12.7041 3.92959 12.7493C3.91088 12.7945 3.90125 12.8429 3.90125 12.8918C3.90125 12.9407 3.91088 12.9892 3.92959 13.0343C3.94831 13.0795 3.97574 13.1206 4.01032 13.1551C4.04489 13.1897 4.08594 13.2171 4.13112 13.2359C4.1763 13.2546 4.22472 13.2642 4.27362 13.2642H10.0081C10.1069 13.2642 10.2016 13.225 10.2714 13.1551C10.3413 13.0853 10.3805 12.9906 10.3805 12.8918C10.3805 12.7931 10.3413 12.6984 10.2714 12.6285C10.2016 12.5587 10.1069 12.5195 10.0081 12.5195ZM9.15687 15.356H4.27362C4.17486 15.356 4.08015 15.3952 4.01032 15.465C3.94048 15.5349 3.90125 15.6296 3.90125 15.7283C3.90125 15.8271 3.94048 15.9218 4.01032 15.9916C4.08015 16.0615 4.17486 16.1007 4.27362 16.1007H9.15687C9.25563 16.1007 9.35035 16.0615 9.42018 15.9916C9.49002 15.9218 9.52925 15.8271 9.52925 15.7283C9.52925 15.6296 9.49002 15.5349 9.42018 15.465C9.35035 15.3952 9.25563 15.356 9.15687 15.356Z"
        fill="white"/>
    <path
        d="M21.5566 2.58364C21.5316 2.44261 21.4788 2.30795 21.4014 2.18745C21.324 2.06695 21.2234 1.96301 21.1055 1.88164L20.0281 1.13389C19.7903 0.969684 19.4971 0.906412 19.2127 0.957931C18.9283 1.00945 18.676 1.17156 18.5109 1.40877L17.0836 3.46602C17.0649 3.08068 16.8989 2.71726 16.6199 2.45081C16.3408 2.18437 15.9702 2.03525 15.5844 2.03427H2.081C1.68141 2.03476 1.29833 2.19377 1.01585 2.4764C0.733365 2.75902 0.574547 3.14217 0.574249 3.54177V19.4043C0.574547 19.8039 0.733365 20.187 1.01585 20.4696C1.29833 20.7523 1.68141 20.9113 2.081 20.9118H15.5844C15.984 20.9113 16.367 20.7523 16.6495 20.4696C16.932 20.187 17.0908 19.8039 17.0911 19.4043V9.58077C18.086 8.14602 20.4076 4.80027 21.3792 3.39964C21.4613 3.28217 21.5192 3.1496 21.5496 3.0096C21.5801 2.8696 21.5825 2.72494 21.5566 2.58402V2.58364ZM16.3464 19.405C16.3462 19.6072 16.2658 19.8009 16.1229 19.9439C15.9799 20.0868 15.7861 20.1672 15.584 20.1674H2.081C1.87893 20.1671 1.68523 20.0867 1.54238 19.9437C1.39953 19.8008 1.3192 19.6071 1.319 19.405V3.54139C1.3192 3.33932 1.39953 3.14558 1.54238 3.00266C1.68523 2.85974 1.87893 2.77932 2.081 2.77902H15.5844C15.7864 2.77932 15.9801 2.85974 16.123 3.00266C16.2658 3.14558 16.3462 3.33932 16.3464 3.54139V4.52877L11.8437 11.0196C11.8254 11.0598 11.8066 11.0976 11.7894 11.1385L10.8226 14.8634C10.8051 14.9362 10.8099 15.0126 10.8362 15.0827C10.8625 15.1528 10.9092 15.2134 10.9703 15.2568C11.0314 15.3001 11.104 15.3241 11.1789 15.3258C11.2538 15.3275 11.3274 15.3067 11.3904 15.2661L14.6079 13.1106C14.6476 13.0773 14.6845 13.0407 14.7181 13.0011L16.3464 10.6536V19.405ZM12.3759 11.842L13.7454 12.7923L11.7897 14.1025L12.3759 11.842ZM14.3124 12.2793L12.6676 11.1381L17.3337 4.41177L18.9789 5.55289L14.3124 12.2793ZM20.7676 2.97439L19.4034 4.94089L17.7586 3.79977L19.1225 1.83364C19.1748 1.75841 19.2548 1.70698 19.345 1.69061C19.4352 1.67423 19.5282 1.69424 19.6036 1.74627L20.6806 2.49327C20.7556 2.54579 20.8069 2.62582 20.8231 2.71592C20.8394 2.80603 20.8195 2.89893 20.7676 2.97439Z"
        fill="white" />
</svg>
