<svg width="107" height="97" viewBox="0 0 107 97" fill="none" xmlns="http://www.w3.org/2000/svg">
<path d="M0.899994 26.2442C0.899994 29.0056 3.13857 31.2442 5.89999 31.2442C8.66142 31.2442 10.9 29.0056 10.9 26.2442H0.899994ZM28.748 10.7002C31.5094 10.7002 33.748 8.46162 33.748 5.7002C33.748 2.93877 31.5094 0.700196 28.748 0.700196V10.7002ZM78.252 0.700195C75.4906 0.700195 73.252 2.93877 73.252 5.7002C73.252 8.46162 75.4906 10.7002 78.252 10.7002V0.700195ZM82.06 5.7002V0.700195V5.7002ZM101.1 22.8202H96.1H101.1ZM96.1 26.2442C96.1 29.0056 98.3386 31.2442 101.1 31.2442C103.861 31.2442 106.1 29.0056 106.1 26.2442H96.1ZM26.3791 83.0342C28.4325 81.1879 28.6004 78.0265 26.754 75.9731C24.9077 73.9197 21.7463 73.7518 19.6929 75.5982L26.3791 83.0342ZM6.3649 87.5822C4.31149 89.4285 4.14363 92.5899 5.98997 94.6433C7.83631 96.6967 10.9977 96.8645 13.0511 95.0182L6.3649 87.5822ZM93.9489 95.0182C96.0023 96.8645 99.1637 96.6967 101.01 94.6433C102.856 92.5899 102.688 89.4285 100.635 87.5822L93.9489 95.0182ZM87.3071 75.5982C85.2537 73.7518 82.0923 73.9197 80.246 75.9731C78.3996 78.0265 78.5675 81.1879 80.6209 83.0342L87.3071 75.5982ZM58.5 37.8002C58.5 35.0388 56.2614 32.8002 53.5 32.8002C50.7386 32.8002 48.5 35.0388 48.5 37.8002H58.5ZM48.5 64.5502C48.5 67.3116 50.7386 69.5502 53.5 69.5502C56.2614 69.5502 58.5 67.3116 58.5 64.5502H48.5ZM68.375 56.1752C71.1364 56.1752 73.375 53.9366 73.375 51.1752C73.375 48.4138 71.1364 46.1752 68.375 46.1752V56.1752ZM38.625 46.1752C35.8636 46.1752 33.625 48.4138 33.625 51.1752C33.625 53.9366 35.8636 56.1752 38.625 56.1752V46.1752ZM10.9 26.2442V22.8202H0.899994V26.2442H10.9ZM24.94 10.7002H28.748V0.700196H24.94V10.7002ZM10.9 22.8202C10.9 16.6131 16.6727 10.7002 24.94 10.7002V0.700196C12.1762 0.700196 0.899994 10.117 0.899994 22.8202H10.9ZM78.252 10.7002H82.06V0.700195H78.252V10.7002ZM96.1 22.8202V26.2442H106.1V22.8202H96.1ZM82.06 10.7002C90.3272 10.7002 96.1 16.6131 96.1 22.8202L106.1 22.8202C106.1 10.117 94.8237 0.700196 82.06 0.700195V10.7002ZM19.6929 75.5982L6.3649 87.5822L13.0511 95.0182L26.3791 83.0342L19.6929 75.5982ZM100.635 87.5822L87.3071 75.5982L80.6209 83.0342L93.9489 95.0182L100.635 87.5822ZM90.388 51.9242C90.388 69.4774 74.3858 84.5882 53.5 84.5882V94.5882C78.8823 94.5882 100.388 75.9735 100.388 51.9242H90.388ZM53.5 84.5882C32.6141 84.5882 16.612 69.4774 16.612 51.9242H6.61199C6.61199 75.9735 28.1176 94.5882 53.5 94.5882V84.5882ZM16.612 51.9242C16.612 34.371 32.6141 19.2602 53.5 19.2602V9.2602C28.1176 9.2602 6.61199 27.8749 6.61199 51.9242H16.612ZM53.5 19.2602C74.3858 19.2602 90.388 34.371 90.388 51.9242H100.388C100.388 27.8749 78.8823 9.2602 53.5 9.2602V19.2602ZM48.5 37.8002V51.1752H58.5V37.8002H48.5ZM48.5 51.1752V64.5502H58.5V51.1752H48.5ZM68.375 46.1752H53.5V56.1752H68.375V46.1752ZM53.5 46.1752H38.625V56.1752H53.5V46.1752Z" fill="#E9FFBE"/>
</svg>
