<svg width="20" height="22" viewBox="0 0 20 22" fill="none" xmlns="http://www.w3.org/2000/svg">
    <path
        d="M10.7199 1.44338L10.7197 1.44324C10.2686 1.19347 9.72025 1.19327 9.268 1.44341C6.85146 2.78098 4.43485 4.1184 2.01816 5.45568L10.7199 1.44338ZM10.7199 1.44338L17.97 5.45429C17.9701 5.45432 17.9701 5.45435 17.9702 5.45438C18.1927 5.57755 18.3802 5.75526 18.5151 5.9708C18.65 6.1864 18.7279 6.43277 18.7415 6.68675C18.755 6.94074 18.7038 7.194 18.5925 7.42273L19.267 7.75076L18.5925 7.42273C18.4813 7.65146 18.3137 7.84814 18.1055 7.99429L18.1052 7.99455C16.8374 8.88577 15.1495 10.0712 13.6415 11.1302C12.5382 11.9051 11.5313 12.6122 10.8557 13.087C10.6033 13.2642 10.3024 13.3592 9.994 13.3592C9.68549 13.3592 9.38448 13.2641 9.132 13.0868L1.88266 7.99518C1.88263 7.99516 1.8826 7.99514 1.88257 7.99512C1.67456 7.84895 1.50711 7.65231 1.39596 7.42367C1.28479 7.195 1.23357 6.94181 1.24711 6.68791C1.26066 6.434 1.33853 6.18771 1.47341 5.97216L0.837618 5.57432M10.7199 1.44338L0.837618 5.57432M0.837618 5.57432L1.47341 5.97216M0.837618 5.57432L1.47341 5.97216M1.47341 5.97216C1.60822 5.7567 1.79558 5.57904 2.01788 5.45584L1.47341 5.97216Z"
        stroke="white" stroke-width="1.5" />
    <path fill-rule="evenodd" clip-rule="evenodd"
        d="M0.939998 15.6306L8.701 21.0816C9.07972 21.3475 9.53123 21.4902 9.994 21.4902C10.4568 21.4902 10.9083 21.3475 11.287 21.0816L19.0487 15.6306C19.208 15.5149 19.3153 15.3411 19.3476 15.147C19.3799 14.9528 19.3346 14.7537 19.2214 14.5926C19.1081 14.4316 18.9362 14.3215 18.7425 14.2861C18.5489 14.2508 18.3491 14.293 18.1862 14.4036L10.4252 19.8546C10.2989 19.9431 10.1483 19.9906 9.994 19.9906C9.83969 19.9906 9.68912 19.9431 9.56275 19.8546L1.801 14.4036C1.63812 14.2961 1.43973 14.2562 1.24797 14.2926C1.05621 14.329 0.886183 14.4387 0.774006 14.5984C0.661828 14.7582 0.616335 14.9553 0.647189 15.148C0.678043 15.3408 0.782813 15.5139 0.939247 15.6306H0.939998Z"
        fill="white" />
    <path fill-rule="evenodd" clip-rule="evenodd"
        d="M0.939998 11.8869L8.701 17.3379C9.07972 17.6039 9.53123 17.7466 9.994 17.7466C10.4568 17.7466 10.9083 17.6039 11.287 17.3379L19.0487 11.8869C19.208 11.7712 19.3153 11.5975 19.3476 11.4033C19.3799 11.2091 19.3346 11.01 19.2214 10.849C19.1081 10.6879 18.9362 10.5778 18.7425 10.5425C18.5489 10.5071 18.3491 10.5493 18.1862 10.6599L10.4252 16.1109C10.2989 16.1995 10.1483 16.247 9.994 16.247C9.83969 16.247 9.68912 16.1995 9.56275 16.1109L1.801 10.6599C1.63812 10.5524 1.43973 10.5126 1.24797 10.549C1.05621 10.5854 0.886183 10.6951 0.774006 10.8548C0.661828 11.0145 0.616335 11.2117 0.647189 11.4044C0.678043 11.5971 0.782813 11.7702 0.939247 11.8869H0.939998Z"
        fill="white" />
</svg>
