<svg width="115" height="102" viewBox="0 0 115 102" fill="none" xmlns="http://www.w3.org/2000/svg">
<path fill-rule="evenodd" clip-rule="evenodd" d="M63.9529 1.63818C59.9176 -0.174316 55.0154 -0.174316 50.9756 1.63818C36.5763 8.10346 22.1765 14.568 7.77622 21.0319C5.7883 21.9252 4.11293 23.2137 2.90748 24.7764C1.70203 26.3391 1.00608 28.1247 0.884997 29.9656C0.763915 31.8064 1.22168 33.642 2.21529 35.2999C3.20889 36.9578 4.70573 38.3836 6.56519 39.4433L49.7601 64.0534C52.0167 65.3388 54.7069 66.0285 57.4642 66.0285C60.2216 66.0285 62.9118 65.3388 65.1684 64.0534C74.6868 58.6268 95.2877 46.8963 108.363 39.4397C110.224 38.3801 111.722 36.9541 112.716 35.2958C113.71 33.6376 114.168 31.8014 114.047 29.96C113.926 28.1186 113.23 26.3324 112.024 24.7694C110.817 23.2063 109.141 21.9177 107.152 21.0247L63.9529 1.63818Z" fill="#FFE2B3"/>
<path fill-rule="evenodd" clip-rule="evenodd" d="M3.5175 73.3805L49.7601 99.727C52.0167 101.012 54.7069 101.702 57.4642 101.702C60.2216 101.702 62.9118 101.012 65.1684 99.727L111.415 73.3805C112.364 72.8211 113.004 71.9815 113.196 71.0429C113.389 70.1043 113.118 69.142 112.444 68.3636C111.769 67.5852 110.745 67.0532 109.591 66.8822C108.437 66.7113 107.247 66.9152 106.276 67.45L60.0338 93.7965C59.2808 94.2245 58.3837 94.4541 57.4642 94.4541C56.5448 94.4541 55.6477 94.2245 54.8947 93.7965L8.64762 67.45C7.67712 66.9302 6.49506 66.7378 5.35249 66.9136C4.20992 67.0895 3.19685 67.6197 2.52846 68.3917C1.86007 69.1637 1.58901 70.1166 1.77285 71.0481C1.95669 71.9796 2.58094 72.8163 3.51303 73.3805H3.5175Z" fill="#FFE2B3"/>
<path fill-rule="evenodd" clip-rule="evenodd" d="M3.5175 55.2882L49.7601 81.6347C52.0167 82.9201 54.7069 83.6097 57.4642 83.6097C60.2216 83.6097 62.9118 82.9201 65.1684 81.6347L111.415 55.2882C112.364 54.7288 113.004 53.8892 113.196 52.9506C113.389 52.012 113.118 51.0497 112.444 50.2713C111.769 49.4929 110.745 48.9609 109.591 48.7899C108.437 48.619 107.247 48.8229 106.276 49.3577L60.0338 75.7042C59.2808 76.1322 58.3837 76.3618 57.4642 76.3618C56.5448 76.3618 55.6477 76.1322 54.8947 75.7042L8.64762 49.3577C7.67712 48.8379 6.49506 48.6455 5.35249 48.8213C4.20992 48.9972 3.19685 49.5274 2.52846 50.2994C1.86007 51.0714 1.58901 52.0243 1.77285 52.9558C1.95669 53.8874 2.58094 54.724 3.51303 55.2882H3.5175Z" fill="#FFE2B3"/>
</svg>
